<svg width="138" height="84" viewBox="0 0 138 84" fill="none" xmlns="http://www.w3.org/2000/svg">
<path d="M31.3741 22.3576C31.477 33.5773 23.8935 40.511 12.216 40.6193L0.337867 40.7277L0 4.29659L11.8781 4.18825C23.5609 4.08255 31.2711 11.0982 31.3741 22.3576ZM12.1738 35.7441C20.7603 35.6648 25.3215 30.697 25.2476 22.4157C25.1711 14.0815 20.5175 8.98425 11.9309 9.06352L6.01297 9.11901L6.25581 35.8075L12.1738 35.7441Z" fill="#F9F1E0"/>
<path d="M36.3338 3.86059C36.3247 2.85282 36.7159 1.8827 37.4213 1.16366C38.1267 0.444615 39.0886 0.0355417 40.0952 0.0264311C41.1019 0.0173205 42.071 0.408919 42.7893 1.11508C43.5075 1.82124 43.9162 2.78411 43.9253 3.79188C43.9344 4.79966 43.5432 5.76977 42.8378 6.48881C42.1324 7.20786 41.1706 7.61693 40.1639 7.62604C39.6654 7.63055 39.1709 7.53673 38.7087 7.34994C38.2465 7.16315 37.8255 6.88705 37.4698 6.53739C36.7516 5.83123 36.3429 4.86836 36.3338 3.86059ZM37.1891 11.5078L43.1572 11.4523L43.4211 40.334L37.4504 40.3895L37.1891 11.5078Z" fill="#F9F1E0"/>
<path d="M61.7478 40.6378C54.8373 40.7012 49.9304 36.6583 49.6215 31.4184L55.8008 31.3629C56.0304 33.72 58.3005 35.6384 61.6079 35.6067C65.0657 35.5749 66.887 34.0925 66.8659 32.1002C66.8158 26.4401 50.0887 29.8409 49.9937 19.2527C49.9515 14.6417 54.217 10.8789 61.0166 10.8181C67.5628 10.7573 71.8864 14.2321 72.2533 19.9926L66.2852 20.0481C66.0529 17.5351 64.0996 15.8202 60.8529 15.8519C57.659 15.881 55.9961 17.2075 56.0146 19.147C56.0674 24.9603 72.3219 21.5648 72.7311 31.9945C72.7627 36.8697 68.5552 40.577 61.7478 40.6378Z" fill="#F9F1E0"/>
<path d="M91.1104 10.5433C98.1792 10.4799 102.82 13.9494 104.496 20.0137L98.0578 20.0824C97.0363 17.3158 94.7161 15.5533 91.1553 15.5903C86.3381 15.6352 83.1785 19.2289 83.2366 25.5179C83.2946 31.8597 86.5228 35.3953 91.3374 35.353C94.8982 35.3186 97.0838 33.7279 98.1555 30.7287L104.596 30.6706C103.026 36.3465 98.4538 40.3207 91.385 40.3842C83.1125 40.4608 77.1946 34.6422 77.1101 25.5734C77.0256 16.5442 82.838 10.6199 91.1104 10.5433Z" fill="#F9F1E0"/>
<path d="M123.16 40.0776C114.941 40.1543 108.656 34.3383 108.574 25.2801C108.492 16.2218 114.93 10.3345 123.15 10.2579C131.369 10.1813 137.918 15.9338 138 25.0026C138.082 34.0714 131.433 40.0037 123.16 40.0776ZM123.113 34.88C127.566 34.8404 131.934 31.6034 131.874 25.0502C131.813 18.497 127.545 15.3921 123.094 15.4344C118.591 15.474 114.587 18.6555 114.648 25.2114C114.708 31.7672 118.61 34.9302 123.113 34.88Z" fill="#F9F1E0"/>
<path d="M63.086 54.1697C70.1548 54.1142 74.7899 57.589 76.4634 63.656L70.0229 63.7062C69.004 60.9369 66.6864 59.1744 63.1256 59.2141C58.3084 59.2537 55.1435 62.8421 55.2069 69.1337C55.257 75.4756 58.48 79.0138 63.2972 78.9741C66.858 78.9451 69.0436 77.3543 70.1179 74.3578L76.5585 74.3076C74.9747 79.9809 70.4056 83.9498 63.3368 84.0053C55.0643 84.074 49.1517 78.2501 49.0831 69.1813C48.988 60.1574 54.8057 54.241 63.086 54.1697Z" fill="#F9F1E0"/>
<path d="M93.0558 83.7648C86.1428 83.8203 81.2411 79.7721 80.9375 74.5322L87.1168 74.482C87.3438 76.839 89.6112 78.7601 92.9106 78.7337C96.3659 78.7072 98.1898 77.2248 98.1713 75.2324C98.1265 69.5697 81.3968 72.9573 81.3097 62.3691C81.2727 57.7555 85.533 54.0006 92.3431 53.9451C98.8893 53.8922 103.21 57.367 103.572 63.1301L97.6012 63.1804C97.3715 60.6648 95.4209 58.9525 92.1742 58.9789C88.9803 59.0027 87.3147 60.3265 87.3306 62.2661C87.3781 68.0794 103.635 64.705 104.034 75.132C104.073 79.9994 99.8633 83.7014 93.0558 83.7648Z" fill="#F9F1E0"/>
<path d="M13.0131 68.4388H6.1819V83.7384H0V46.0125H13.0131C21.9613 46.0125 26.3536 51.115 26.3536 57.2481C26.3536 62.6254 22.8271 68.4388 13.0131 68.4388ZM13.0131 63.3891C17.8383 63.3891 20.008 61.0558 20.008 57.256C20.008 53.3479 17.8383 51.0675 13.0131 51.0675H6.1819V63.3891H13.0131Z" fill="#F9F1E0"/>
<path d="M43.4185 39.8583H37.4398V83.7384H43.4185V39.8583Z" fill="#F9F1E0"/>
</svg>
